STARTFONT 2.1
FONT -FreeType-malayalam-Medium-R-Normal--16-160-72-72-P-120-ISO10646-1
SIZE 16 72 72
FONTBOUNDINGBOX 35 21 -3 -8
COMMENT "Generated by fontforge, http://fontforge.sourceforge.net"
COMMENT ""
COMMENT "Converted from OpenType font "malayalam.ttf" by "otf2bdf 3.0"."
COMMENT ""
STARTPROPERTIES 19
FOUNDRY "FreeType"
FAMILY_NAME "malayalam"
WEIGHT_NAME "Medium"
SLANT "R"
SETWIDTH_NAME "Normal"
ADD_STYLE_NAME ""
PIXEL_SIZE 16
POINT_SIZE 160
RESOLUTION_X 72
RESOLUTION_Y 72
SPACING "P"
AVERAGE_WIDTH 120
CHARSET_REGISTRY "ISO10646"
CHARSET_ENCODING "1"
FONT_ASCENT 12
FONT_DESCENT 3
COPYRIGHT "Created by Shaji N Vyapron <nvshaji@netscape.net> with PfaEdit from Original TeX fonts for Malayalam (C)Jeroen Hellingman <jehe@kabelfoon.nl>  Licensed under GPL"
_OTF_FONTFILE "malayalam.ttf"
_OTF_PSNAME "malayalam"
ENDPROPERTIES
CHARS 253
STARTCHAR $000D
ENCODING 13
SWIDTH 312 0
DWIDTH 5 0
BBX 0 0 0 0
BITMAP
ENDCHAR
STARTCHAR $0020
ENCODING 32
SWIDTH 250 0
DWIDTH 4 0
BBX 0 0 0 0
BITMAP
ENDCHAR
STARTCHAR $0021
ENCODING 33
SWIDTH 250 0
DWIDTH 4 0
BBX 1 12 2 0
BITMAP
80
80
80
80
80
80
80
80
80
00
00
80
ENDCHAR
STARTCHAR $0022
ENCODING 34
SWIDTH 375 0
DWIDTH 6 0
BBX 4 4 1 8
BITMAP
90
90
90
90
ENDCHAR
STARTCHAR $0023
ENCODING 35
SWIDTH 687 0
DWIDTH 11 0
BBX 9 12 1 0
BITMAP
1300
1200
1200
7F80
1200
3600
2600
FF00
2400
2400
2400
6400
ENDCHAR
STARTCHAR $0024
ENCODING 36
SWIDTH 562 0
DWIDTH 9 0
BBX 8 15 0 -2
BITMAP
08
3E
6B
49
48
68
3C
0F
09
C9
49
6B
3E
08
08
ENDCHAR
STARTCHAR $0025
ENCODING 37
SWIDTH 937 0
DWIDTH 15 0
BBX 13 12 1 0
BITMAP
7040
D880
8880
8900
D900
7200
0270
04D8
0888
0888
10D8
1070
ENDCHAR
STARTCHAR $0026
ENCODING 38
SWIDTH 687 0
DWIDTH 11 0
BBX 9 12 1 0
BITMAP
3800
6C00
4400
4C00
3800
3000
D900
8F00
8600
8600
CF00
7980
ENDCHAR
STARTCHAR $0027
ENCODING 39
SWIDTH 187 0
DWIDTH 3 0
BBX 1 3 1 9
BITMAP
80
80
80
ENDCHAR
STARTCHAR $0028
ENCODING 40
SWIDTH 312 0
DWIDTH 5 0
BBX 3 16 1 -4
BITMAP
20
40
40
40
80
80
80
80
80
80
80
80
40
40
40
20
ENDCHAR
STARTCHAR $0029
ENCODING 41
SWIDTH 312 0
DWIDTH 5 0
BBX 3 16 1 -4
BITMAP
80
80
40
40
60
20
20
20
20
20
20
60
40
40
80
80
ENDCHAR
STARTCHAR $002A
ENCODING 42
SWIDTH 437 0
DWIDTH 7 0
BBX 5 5 1 7
BITMAP
20
A8
70
50
10
ENDCHAR
STARTCHAR $002B
ENCODING 43
SWIDTH 625 0
DWIDTH 10 0
BBX 8 8 1 0
BITMAP
10
10
10
FF
10
10
10
10
ENDCHAR
STARTCHAR $002C
ENCODING 44
SWIDTH 250 0
DWIDTH 4 0
BBX 1 4 2 -3
BITMAP
80
80
80
80
ENDCHAR
STARTCHAR $002D
ENCODING 45
SWIDTH 375 0
DWIDTH 6 0
BBX 4 1 1 4
BITMAP
F0
ENDCHAR
STARTCHAR $002E
ENCODING 46
SWIDTH 312 0
DWIDTH 5 0
BBX 1 1 2 0
BITMAP
80
ENDCHAR
STARTCHAR $002F
ENCODING 47
SWIDTH 250 0
DWIDTH 4 0
BBX 4 12 0 0
BITMAP
10
10
10
20
20
20
20
40
40
40
80
80
ENDCHAR
STARTCHAR $0030
ENCODING 48
SWIDTH 562 0
DWIDTH 9 0
BBX 7 12 1 0
BITMAP
38
6C
C6
86
82
82
82
82
86
C6
6C
38
ENDCHAR
STARTCHAR $0031
ENCODING 49
SWIDTH 500 0
DWIDTH 8 0
BBX 4 12 1 0
BITMAP
10
10
F0
10
10
10
10
10
10
10
10
10
ENDCHAR
STARTCHAR $0032
ENCODING 50
SWIDTH 562 0
DWIDTH 9 0
BBX 7 12 1 0
BITMAP
78
CC
86
82
02
06
1C
30
60
C0
80
FE
ENDCHAR
STARTCHAR $0033
ENCODING 51
SWIDTH 562 0
DWIDTH 9 0
BBX 7 12 1 0
BITMAP
7C
C6
82
82
06
1C
06
02
82
86
CE
78
ENDCHAR
STARTCHAR $0034
ENCODING 52
SWIDTH 562 0
DWIDTH 9 0
BBX 8 12 1 0
BITMAP
04
0C
1C
14
24
64
44
84
FF
04
04
04
ENDCHAR
STARTCHAR $0035
ENCODING 53
SWIDTH 562 0
DWIDTH 9 0
BBX 7 12 1 0
BITMAP
7E
C0
C0
C0
B8
CC
06
02
02
86
EC
78
ENDCHAR
STARTCHAR $0036
ENCODING 54
SWIDTH 562 0
DWIDTH 9 0
BBX 7 12 1 0
BITMAP
38
64
C6
80
B8
C4
86
82
82
86
6C
38
ENDCHAR
STARTCHAR $0037
ENCODING 55
SWIDTH 625 0
DWIDTH 10 0
BBX 8 12 1 0
BITMAP
FF
03
02
04
0C
08
18
10
10
30
20
20
ENDCHAR
STARTCHAR $0038
ENCODING 56
SWIDTH 562 0
DWIDTH 9 0
BBX 7 12 1 0
BITMAP
78
C6
82
82
C6
7C
C6
82
82
86
EC
78
ENDCHAR
STARTCHAR $0039
ENCODING 57
SWIDTH 562 0
DWIDTH 9 0
BBX 7 12 1 0
BITMAP
78
CC
86
82
82
C6
7A
02
06
C6
6C
78
ENDCHAR
STARTCHAR $003A
ENCODING 58
SWIDTH 250 0
DWIDTH 4 0
BBX 1 9 2 0
BITMAP
80
00
00
00
00
00
00
00
80
ENDCHAR
STARTCHAR $003B
ENCODING 59
SWIDTH 250 0
DWIDTH 4 0
BBX 1 12 2 -3
BITMAP
80
00
00
00
00
00
00
00
80
80
80
80
ENDCHAR
STARTCHAR $003C
ENCODING 60
SWIDTH 625 0
DWIDTH 10 0
BBX 8 8 1 0
BITMAP
01
07
38
E0
E0
38
0E
03
ENDCHAR
STARTCHAR $003D
ENCODING 61
SWIDTH 625 0
DWIDTH 10 0
BBX 8 4 1 2
BITMAP
FF
00
00
FF
ENDCHAR
STARTCHAR $003E
ENCODING 62
SWIDTH 625 0
DWIDTH 10 0
BBX 8 8 1 0
BITMAP
80
E0
1C
07
03
1C
70
C0
ENDCHAR
STARTCHAR $003F
ENCODING 63
SWIDTH 562 0
DWIDTH 9 0
BBX 6 12 2 0
BITMAP
78
CC
84
84
0C
08
18
10
10
00
00
10
ENDCHAR
STARTCHAR $0040
ENCODING 64
SWIDTH 1000 0
DWIDTH 16 0
BBX 14 14 1 -2
BITMAP
07C0
1C70
3018
63A8
C6EC
8C44
8844
8844
888C
8C98
C770
6000
3800
0FC0
ENDCHAR
STARTCHAR $0041
ENCODING 65
SWIDTH 687 0
DWIDTH 11 0
BBX 10 12 0 0
BITMAP
0E00
0E00
0A00
1B00
1300
1100
3180
3F80
6080
60C0
40C0
C040
ENDCHAR
STARTCHAR $0042
ENCODING 66
SWIDTH 687 0
DWIDTH 11 0
BBX 8 12 2 0
BITMAP
FE
87
81
81
83
FE
83
81
81
81
83
FE
ENDCHAR
STARTCHAR $0043
ENCODING 67
SWIDTH 687 0
DWIDTH 11 0
BBX 10 12 1 0
BITMAP
1E00
7380
4180
C080
8000
8000
8000
80C0
C080
4180
7380
1E00
ENDCHAR
STARTCHAR $0044
ENCODING 68
SWIDTH 750 0
DWIDTH 12 0
BBX 9 12 2 0
BITMAP
FE00
8700
8100
8180
8080
8080
8080
8080
8180
8100
8700
FC00
ENDCHAR
STARTCHAR $0045
ENCODING 69
SWIDTH 687 0
DWIDTH 11 0
BBX 8 12 2 0
BITMAP
FF
80
80
80
80
FE
80
80
80
80
80
FF
ENDCHAR
STARTCHAR $0046
ENCODING 70
SWIDTH 625 0
DWIDTH 10 0
BBX 7 12 2 0
BITMAP
FE
80
80
80
80
FE
80
80
80
80
80
80
ENDCHAR
STARTCHAR $0047
ENCODING 71
SWIDTH 750 0
DWIDTH 12 0
BBX 10 12 1 0
BITMAP
1F00
7180
40C0
C000
8000
87C0
8040
8040
C0C0
40C0
7340
1E40
ENDCHAR
STARTCHAR $0048
ENCODING 72
SWIDTH 750 0
DWIDTH 12 0
BBX 9 12 2 0
BITMAP
8080
8080
8080
8080
8080
FF80
8080
8080
8080
8080
8080
8080
ENDCHAR
STARTCHAR $0049
ENCODING 73
SWIDTH 250 0
DWIDTH 4 0
BBX 1 12 2 0
BITMAP
80
80
80
80
80
80
80
80
80
80
80
80
ENDCHAR
STARTCHAR $004A
ENCODING 74
SWIDTH 500 0
DWIDTH 8 0
BBX 6 12 1 0
BITMAP
04
04
04
04
04
04
04
04
84
84
CC
78
ENDCHAR
STARTCHAR $004B
ENCODING 75
SWIDTH 687 0
DWIDTH 11 0
BBX 9 12 2 0
BITMAP
8300
8600
8400
8800
9000
B800
D800
8C00
8600
8600
8300
8180
ENDCHAR
STARTCHAR $004C
ENCODING 76
SWIDTH 562 0
DWIDTH 9 0
BBX 7 12 2 0
BITMAP
80
80
80
80
80
80
80
80
80
80
80
FE
ENDCHAR
STARTCHAR $004D
ENCODING 77
SWIDTH 812 0
DWIDTH 13 0
BBX 11 12 1 0
BITMAP
C060
C060
E0E0
A0A0
A1A0
B1A0
9120
9320
9A20
8A20
8E20
8C20
ENDCHAR
STARTCHAR $004E
ENCODING 78
SWIDTH 687 0
DWIDTH 11 0
BBX 9 12 1 0
BITMAP
C080
C080
E080
B080
9080
9880
8C80
8480
8680
8380
8380
8180
ENDCHAR
STARTCHAR $004F
ENCODING 79
SWIDTH 812 0
DWIDTH 13 0
BBX 11 12 1 0
BITMAP
1F00
7180
40C0
C060
8020
8020
8020
8020
C060
40C0
7380
1F00
ENDCHAR
STARTCHAR $0050
ENCODING 80
SWIDTH 687 0
DWIDTH 11 0
BBX 8 12 2 0
BITMAP
FE
87
83
81
81
83
FE
80
80
80
80
80
ENDCHAR
STARTCHAR $0051
ENCODING 81
SWIDTH 812 0
DWIDTH 13 0
BBX 11 12 1 -1
BITMAP
1F00
7180
40C0
C060
8020
8020
8020
8020
C060
43C0
73C0
1F60
ENDCHAR
STARTCHAR $0052
ENCODING 82
SWIDTH 687 0
DWIDTH 11 0
BBX 9 12 2 0
BITMAP
FE00
8700
8100
8100
8300
FE00
8300
8100
8100
8100
8100
8180
ENDCHAR
STARTCHAR $0053
ENCODING 83
SWIDTH 687 0
DWIDTH 11 0
BBX 9 12 1 0
BITMAP
3E00
6300
C180
8080
C000
7C00
0F00
0180
8080
C180
6300
3E00
ENDCHAR
STARTCHAR $0054
ENCODING 84
SWIDTH 687 0
DWIDTH 11 0
BBX 9 12 1 0
BITMAP
FF80
0800
0800
0800
0800
0800
0800
0800
0800
0800
0800
0800
ENDCHAR
STARTCHAR $0055
ENCODING 85
SWIDTH 750 0
DWIDTH 12 0
BBX 9 12 2 0
BITMAP
8080
8080
8080
8080
8080
8080
8080
8080
8080
C180
6300
3E00
ENDCHAR
STARTCHAR $0056
ENCODING 86
SWIDTH 687 0
DWIDTH 11 0
BBX 9 12 1 0
BITMAP
8080
C180
C100
4100
6300
6300
2200
3600
3600
1400
1C00
0800
ENDCHAR
STARTCHAR $0057
ENCODING 87
SWIDTH 937 0
DWIDTH 15 0
BBX 15 12 0 0
BITMAP
C106
C386
6284
628C
62CC
26CC
2448
3448
3478
1C38
1830
1830
ENDCHAR
STARTCHAR $0058
ENCODING 88
SWIDTH 687 0
DWIDTH 11 0
BBX 9 12 1 0
BITMAP
C180
4300
6300
3600
1400
1C00
1C00
3400
2600
6300
C100
8180
ENDCHAR
STARTCHAR $0059
ENCODING 89
SWIDTH 687 0
DWIDTH 11 0
BBX 9 12 1 0
BITMAP
8180
C180
4300
6200
3600
1400
1C00
0800
0800
0800
0800
0800
ENDCHAR
STARTCHAR $005A
ENCODING 90
SWIDTH 687 0
DWIDTH 11 0
BBX 9 12 1 0
BITMAP
7F80
0180
0300
0200
0600
0C00
1800
3800
3000
6000
E000
FF80
ENDCHAR
STARTCHAR $005B
ENCODING 91
SWIDTH 250 0
DWIDTH 4 0
BBX 3 16 1 -4
BITMAP
E0
80
80
80
80
80
80
80
80
80
80
80
80
80
80
E0
ENDCHAR
STARTCHAR $005C
ENCODING 92
SWIDTH 250 0
DWIDTH 4 0
BBX 4 12 0 0
BITMAP
80
80
40
40
40
40
20
20
20
10
10
10
ENDCHAR
STARTCHAR $005D
ENCODING 93
SWIDTH 250 0
DWIDTH 4 0
BBX 3 16 0 -4
BITMAP
E0
20
20
20
20
20
20
20
20
20
20
20
20
20
20
E0
ENDCHAR
STARTCHAR $005E
ENCODING 94
SWIDTH 500 0
DWIDTH 8 0
BBX 6 7 1 6
BITMAP
20
30
70
50
48
88
84
ENDCHAR
STARTCHAR $005F
ENCODING 95
SWIDTH 562 0
DWIDTH 9 0
BBX 9 1 0 -3
BITMAP
FF80
ENDCHAR
STARTCHAR $0060
ENCODING 96
SWIDTH 187 0
DWIDTH 3 0
BBX 1 3 1 8
BITMAP
80
80
80
ENDCHAR
STARTCHAR $0061
ENCODING 97
SWIDTH 562 0
DWIDTH 9 0
BBX 8 9 1 0
BITMAP
7C
E6
C2
06
7A
C2
82
CE
7B
ENDCHAR
STARTCHAR $0062
ENCODING 98
SWIDTH 562 0
DWIDTH 9 0
BBX 7 12 1 0
BITMAP
80
80
80
B8
EC
C6
82
82
82
C6
EC
B8
ENDCHAR
STARTCHAR $0063
ENCODING 99
SWIDTH 500 0
DWIDTH 8 0
BBX 7 9 1 0
BITMAP
38
6C
C6
80
80
80
86
EC
78
ENDCHAR
STARTCHAR $0064
ENCODING 100
SWIDTH 562 0
DWIDTH 9 0
BBX 7 12 1 0
BITMAP
02
02
02
7A
EE
C6
82
82
82
C6
EE
7A
ENDCHAR
STARTCHAR $0065
ENCODING 101
SWIDTH 562 0
DWIDTH 9 0
BBX 7 9 1 0
BITMAP
38
6C
C6
82
FE
80
82
CC
78
ENDCHAR
STARTCHAR $0066
ENCODING 102
SWIDTH 375 0
DWIDTH 6 0
BBX 4 12 1 0
BITMAP
70
40
40
F0
40
40
40
40
40
40
40
40
ENDCHAR
STARTCHAR $0067
ENCODING 103
SWIDTH 562 0
DWIDTH 9 0
BBX 7 13 1 -4
BITMAP
3A
6E
C6
82
82
82
86
EE
7A
02
86
C6
7C
ENDCHAR
STARTCHAR $0068
ENCODING 104
SWIDTH 500 0
DWIDTH 8 0
BBX 6 12 1 0
BITMAP
80
80
80
B8
CC
84
84
84
84
84
84
84
ENDCHAR
STARTCHAR $0069
ENCODING 105
SWIDTH 187 0
DWIDTH 3 0
BBX 1 12 1 0
BITMAP
80
00
00
80
80
80
80
80
80
80
80
80
ENDCHAR
STARTCHAR $006A
ENCODING 106
SWIDTH 187 0
DWIDTH 3 0
BBX 3 16 -1 -4
BITMAP
20
00
00
20
20
20
20
20
20
20
20
20
20
20
60
E0
ENDCHAR
STARTCHAR $006B
ENCODING 107
SWIDTH 500 0
DWIDTH 8 0
BBX 7 12 1 0
BITMAP
80
80
80
8C
98
B0
F0
D0
98
88
8C
86
ENDCHAR
STARTCHAR $006C
ENCODING 108
SWIDTH 187 0
DWIDTH 3 0
BBX 1 12 1 0
BITMAP
80
80
80
80
80
80
80
80
80
80
80
80
ENDCHAR
STARTCHAR $006D
ENCODING 109
SWIDTH 812 0
DWIDTH 13 0
BBX 11 9 1 0
BITMAP
B9C0
CE60
8420
8420
8420
8420
8420
8420
8420
ENDCHAR
STARTCHAR $006E
ENCODING 110
SWIDTH 500 0
DWIDTH 8 0
BBX 6 9 1 0
BITMAP
B8
CC
84
84
84
84
84
84
84
ENDCHAR
STARTCHAR $006F
ENCODING 111
SWIDTH 562 0
DWIDTH 9 0
BBX 7 9 1 0
BITMAP
38
EC
C6
82
82
82
86
EC
78
ENDCHAR
STARTCHAR $0070
ENCODING 112
SWIDTH 562 0
DWIDTH 9 0
BBX 7 13 1 -4
BITMAP
B8
EC
C6
82
82
82
C6
EC
B8
80
80
80
80
ENDCHAR
STARTCHAR $0071
ENCODING 113
SWIDTH 562 0
DWIDTH 9 0
BBX 7 13 1 -4
BITMAP
3A
6E
C6
82
82
82
C6
EE
7A
02
02
02
02
ENDCHAR
STARTCHAR $0072
ENCODING 114
SWIDTH 312 0
DWIDTH 5 0
BBX 4 9 1 0
BITMAP
B0
E0
80
80
80
80
80
80
80
ENDCHAR
STARTCHAR $0073
ENCODING 115
SWIDTH 500 0
DWIDTH 8 0
BBX 6 9 1 0
BITMAP
78
CC
8C
C0
78
0C
84
CC
78
ENDCHAR
STARTCHAR $0074
ENCODING 116
SWIDTH 375 0
DWIDTH 6 0
BBX 4 12 1 0
BITMAP
40
40
40
F0
40
40
40
40
40
40
40
70
ENDCHAR
STARTCHAR $0075
ENCODING 117
SWIDTH 500 0
DWIDTH 8 0
BBX 6 9 1 0
BITMAP
84
84
84
84
84
84
8C
CC
74
ENDCHAR
STARTCHAR $0076
ENCODING 118
SWIDTH 500 0
DWIDTH 8 0
BBX 8 9 0 0
BITMAP
C3
42
46
66
24
2C
38
18
18
ENDCHAR
STARTCHAR $0077
ENCODING 119
SWIDTH 750 0
DWIDTH 12 0
BBX 11 9 0 0
BITMAP
C620
C660
4E60
4A40
6B40
2B40
39C0
3180
3180
ENDCHAR
STARTCHAR $0078
ENCODING 120
SWIDTH 500 0
DWIDTH 8 0
BBX 6 9 1 0
BITMAP
84
CC
78
30
30
30
48
CC
84
ENDCHAR
STARTCHAR $0079
ENCODING 121
SWIDTH 500 0
DWIDTH 8 0
BBX 7 13 1 -4
BITMAP
86
84
C4
4C
48
68
78
30
30
30
20
60
C0
ENDCHAR
STARTCHAR $007A
ENCODING 122
SWIDTH 500 0
DWIDTH 8 0
BBX 6 9 1 0
BITMAP
FC
0C
08
10
30
20
40
80
FC
ENDCHAR
STARTCHAR $007B
ENCODING 123
SWIDTH 312 0
DWIDTH 5 0
BBX 3 16 1 -4
BITMAP
60
60
40
40
40
40
40
80
80
40
40
40
40
40
40
60
ENDCHAR
STARTCHAR $007C
ENCODING 124
SWIDTH 312 0
DWIDTH 5 0
BBX 1 16 2 -4
BITMAP
80
80
80
80
80
80
80
80
80
80
80
80
80
80
80
80
ENDCHAR
STARTCHAR $007D
ENCODING 125
SWIDTH 312 0
DWIDTH 5 0
BBX 4 16 0 -4
BITMAP
C0
60
20
20
20
20
20
30
30
20
20
20
20
20
60
C0
ENDCHAR
STARTCHAR $007E
ENCODING 126
SWIDTH 562 0
DWIDTH 9 0
BBX 7 3 1 5
BITMAP
62
B2
8E
ENDCHAR
STARTCHAR $0D02
ENCODING 3330
SWIDTH 437 0
DWIDTH 7 0
BBX 5 5 1 0
BITMAP
70
88
88
88
70
ENDCHAR
STARTCHAR $0D03
ENCODING 3331
SWIDTH 375 0
DWIDTH 6 0
BBX 4 8 1 0
BITMAP
60
90
90
60
60
90
90
60
ENDCHAR
STARTCHAR $0D05
ENCODING 3333
SWIDTH 1125 0
DWIDTH 18 0
BBX 17 8 0 -1
BITMAP
3F8F00
465080
892180
8B2280
8E2280
8B2280
492280
262100
ENDCHAR
STARTCHAR $0D06
ENCODING 3334
SWIDTH 1312 0
DWIDTH 21 0
BBX 20 11 0 -3
BITMAP
3F8E00
465100
8923C0
8B24A0
8E24A0
8B2490
492490
262320
000020
000240
000180
ENDCHAR
STARTCHAR $0D07
ENCODING 3335
SWIDTH 875 0
DWIDTH 14 0
BBX 14 11 0 -2
BITMAP
3EF0
4108
7108
4904
4904
3108
0008
7FF0
8000
8000
7FFC
ENDCHAR
STARTCHAR $0D08
ENCODING 3336
SWIDTH 1437 0
DWIDTH 23 0
BBX 23 11 0 -2
BITMAP
3EF1DC
410A24
710A22
490622
490522
310804
00080C
7FF030
800000
800000
7FFC00
ENDCHAR
STARTCHAR $0D09
ENCODING 3337
SWIDTH 625 0
DWIDTH 10 0
BBX 9 12 1 -3
BITMAP
1800
6600
8100
B100
C900
8900
7100
0200
7C00
8000
8000
7F80
ENDCHAR
STARTCHAR $0D0A
ENCODING 3338
SWIDTH 1187 0
DWIDTH 19 0
BBX 17 12 1 -3
BITMAP
180000
667700
814880
B18880
C98880
894880
710080
020100
7C0600
800000
800000
7F8000
ENDCHAR
STARTCHAR $0D0B
ENCODING 3339
SWIDTH 812 0
DWIDTH 13 0
BBX 11 14 1 -6
BITMAP
71C0
8A20
8A20
8A20
F1E0
8020
4040
3F80
4040
8020
8020
8020
4040
3F80
ENDCHAR
STARTCHAR $0D0C
ENCODING 3340
SWIDTH 937 0
DWIDTH 15 0
BBX 13 8 1 -1
BITMAP
38F0
4508
8208
F208
8A08
8A08
8A08
7208
ENDCHAR
STARTCHAR $0D0E
ENCODING 3342
SWIDTH 1187 0
DWIDTH 19 0
BBX 17 12 1 -4
BITMAP
001C00
002A00
384900
448900
848880
848880
848880
4FF880
008880
008880
004900
003200
ENDCHAR
STARTCHAR $0D0F
ENCODING 3343
SWIDTH 1187 0
DWIDTH 19 0
BBX 17 12 1 -4
BITMAP
003E00
004900
384880
448880
848880
848880
848900
4FFE00
008900
008880
004880
003700
ENDCHAR
STARTCHAR $0D10
ENCODING 3344
SWIDTH 1687 0
DWIDTH 27 0
BBX 26 12 0 -4
BITMAP
3E000E00
41001500
809C2480
B8A24480
C4C24440
44C24440
45424440
3927FC40
00004440
00004440
00002480
00001B00
ENDCHAR
STARTCHAR $0D12
ENCODING 3346
SWIDTH 687 0
DWIDTH 11 0
BBX 9 9 1 -1
BITMAP
3C00
4200
8100
E100
9300
8880
8880
9080
6700
ENDCHAR
STARTCHAR $0D13
ENCODING 3347
SWIDTH 1187 0
DWIDTH 19 0
BBX 16 9 1 0
BITMAP
3C00
421C
8122
E101
9301
8881
8881
90A2
671C
ENDCHAR
STARTCHAR $0D14
ENCODING 3348
SWIDTH 1250 0
DWIDTH 20 0
BBX 18 8 1 0
BITMAP
3E3B00
414480
814440
E34440
90A440
884080
908100
630600
ENDCHAR
STARTCHAR $0D15
ENCODING 3349
SWIDTH 937 0
DWIDTH 15 0
BBX 13 8 1 1
BITMAP
0700
0880
0880
7FF0
8888
8888
8888
7730
ENDCHAR
STARTCHAR $0D16
ENCODING 3350
SWIDTH 1000 0
DWIDTH 16 0
BBX 14 8 1 0
BITMAP
3E04
4304
8104
B084
C884
8884
8904
73FC
ENDCHAR
STARTCHAR $0D17
ENCODING 3351
SWIDTH 937 0
DWIDTH 15 0
BBX 13 9 1 0
BITMAP
00E0
2110
4308
8208
8208
8208
8208
4410
3860
ENDCHAR
STARTCHAR $0D18
ENCODING 3352
SWIDTH 1375 0
DWIDTH 22 0
BBX 20 8 1 1
BITMAP
707810
888410
890210
890210
5FFE10
010010
010010
01FFF0
ENDCHAR
STARTCHAR $0D19
ENCODING 3353
SWIDTH 937 0
DWIDTH 15 0
BBX 13 9 1 -1
BITMAP
38E0
4510
8208
E208
9270
8A08
8A08
9208
6270
ENDCHAR
STARTCHAR $0D1A
ENCODING 3354
SWIDTH 1000 0
DWIDTH 16 0
BBX 14 8 1 0
BITMAP
0004
0004
1C04
2204
4204
4204
0404
FFFC
ENDCHAR
STARTCHAR $0D1B
ENCODING 3355
SWIDTH 1250 0
DWIDTH 20 0
BBX 19 8 0 1
BITMAP
000F80
001040
0E10A0
112120
212120
212120
021120
FFF8C0
ENDCHAR
STARTCHAR $0D1C
ENCODING 3356
SWIDTH 812 0
DWIDTH 13 0
BBX 11 10 1 -1
BITMAP
7BC0
E420
9420
9420
6420
0040
3F80
41C0
8320
FDE0
ENDCHAR
STARTCHAR $0D1D
ENCODING 3357
SWIDTH 1500 0
DWIDTH 24 0
BBX 22 8 1 1
BITMAP
3F8108
4A4104
892104
912104
912104
912104
891288
4E0C70
ENDCHAR
STARTCHAR $0D1E
ENCODING 3358
SWIDTH 1250 0
DWIDTH 20 0
BBX 18 8 1 -1
BITMAP
78FF00
852880
824440
F24440
8A4440
8A4440
8A4440
723880
ENDCHAR
STARTCHAR $0D1F
ENCODING 3359
SWIDTH 625 0
DWIDTH 10 0
BBX 8 8 1 0
BITMAP
7E
81
80
70
0E
01
81
7E
ENDCHAR
STARTCHAR $0D20
ENCODING 3360
SWIDTH 625 0
DWIDTH 10 0
BBX 8 8 1 0
BITMAP
3C
42
81
81
81
81
42
3C
ENDCHAR
STARTCHAR $0D21
ENCODING 3361
SWIDTH 1187 0
DWIDTH 19 0
BBX 17 8 1 1
BITMAP
302100
482080
842080
842080
842080
842080
825100
418E00
ENDCHAR
STARTCHAR $0D22
ENCODING 3362
SWIDTH 1187 0
DWIDTH 19 0
BBX 17 8 1 1
BITMAP
302300
482480
842480
842480
842280
842180
825100
418E00
ENDCHAR
STARTCHAR $0D23
ENCODING 3363
SWIDTH 1312 0
DWIDTH 21 0
BBX 19 8 1 0
BITMAP
38E380
451440
820820
E20820
920820
920820
920820
620840
ENDCHAR
STARTCHAR $0D24
ENCODING 3364
SWIDTH 875 0
DWIDTH 14 0
BBX 12 8 1 -1
BITMAP
3FC0
4A20
9110
9110
9110
9110
9120
4E40
ENDCHAR
STARTCHAR $0D25
ENCODING 3365
SWIDTH 937 0
DWIDTH 15 0
BBX 13 8 1 0
BITMAP
80E0
8110
8208
8208
8208
8208
8208
FFF8
ENDCHAR
STARTCHAR $0D26
ENCODING 3366
SWIDTH 625 0
DWIDTH 10 0
BBX 8 8 1 0
BITMAP
3C
42
81
82
9E
81
81
BE
ENDCHAR
STARTCHAR $0D27
ENCODING 3367
SWIDTH 937 0
DWIDTH 15 0
BBX 13 9 1 -1
BITMAP
4210
4210
8208
8208
8208
8208
4510
4510
38E0
ENDCHAR
STARTCHAR $0D28
ENCODING 3368
SWIDTH 937 0
DWIDTH 15 0
BBX 13 8 1 -1
BITMAP
38E0
4510
8208
8208
8208
8208
8208
4210
ENDCHAR
STARTCHAR $0D2A
ENCODING 3370
SWIDTH 1000 0
DWIDTH 16 0
BBX 15 8 0 0
BITMAP
0002
0002
3802
4402
8202
8202
8402
4FFE
ENDCHAR
STARTCHAR $0D2B
ENCODING 3371
SWIDTH 1125 0
DWIDTH 18 0
BBX 16 8 1 1
BITMAP
001C
0022
3041
4841
8441
8441
8441
4FFF
ENDCHAR
STARTCHAR $0D2C
ENCODING 3372
SWIDTH 1250 0
DWIDTH 20 0
BBX 18 8 1 1
BITMAP
38E040
451040
821040
F20840
8A0840
8A1040
8A1040
723FC0
ENDCHAR
STARTCHAR $0D2D
ENCODING 3373
SWIDTH 625 0
DWIDTH 10 0
BBX 8 8 1 -1
BITMAP
3E
41
9F
A0
9E
81
81
BE
ENDCHAR
STARTCHAR $0D2E
ENCODING 3374
SWIDTH 687 0
DWIDTH 11 0
BBX 9 8 1 0
BITMAP
3E00
4500
8480
8880
8880
9080
A080
FF80
ENDCHAR
STARTCHAR $0D2F
ENCODING 3375
SWIDTH 937 0
DWIDTH 15 0
BBX 13 8 1 0
BITMAP
6320
9490
8848
8848
8848
8488
4310
3FE0
ENDCHAR
STARTCHAR $0D30
ENCODING 3376
SWIDTH 625 0
DWIDTH 10 0
BBX 9 8 0 0
BITMAP
3E00
4100
8380
8480
8480
8480
8480
4300
ENDCHAR
STARTCHAR $0D31
ENCODING 3377
SWIDTH 625 0
DWIDTH 10 0
BBX 8 8 1 1
BITMAP
3C
42
81
81
81
81
42
24
ENDCHAR
STARTCHAR $0D32
ENCODING 3378
SWIDTH 937 0
DWIDTH 15 0
BBX 13 8 1 0
BITMAP
3C08
4208
8108
8108
FF08
8008
8008
FFF8
ENDCHAR
STARTCHAR $0D33
ENCODING 3379
SWIDTH 687 0
DWIDTH 11 0
BBX 10 12 1 -4
BITMAP
3C00
4300
8100
F100
CB00
8980
8880
7880
0100
7E00
8000
7FC0
ENDCHAR
STARTCHAR $0D34
ENCODING 3380
SWIDTH 687 0
DWIDTH 11 0
BBX 9 9 1 -1
BITMAP
4700
8880
8880
8880
4480
3F00
0400
4400
3800
ENDCHAR
STARTCHAR $0D35
ENCODING 3381
SWIDTH 1000 0
DWIDTH 16 0
BBX 14 8 1 1
BITMAP
3E04
4104
8084
8084
8084
8084
8104
43FC
ENDCHAR
STARTCHAR $0D36
ENCODING 3382
SWIDTH 937 0
DWIDTH 15 0
BBX 13 8 1 0
BITMAP
20F0
4108
8238
8248
8248
8248
4448
3830
ENDCHAR
STARTCHAR $0D37
ENCODING 3383
SWIDTH 1125 0
DWIDTH 18 0
BBX 16 8 1 1
BITMAP
01C3
012F
78F1
8421
8421
8421
8421
4FFF
ENDCHAR
STARTCHAR $0D38
ENCODING 3384
SWIDTH 1187 0
DWIDTH 19 0
BBX 17 8 1 -1
BITMAP
38C100
452080
821080
821080
821080
821080
820880
420700
ENDCHAR
STARTCHAR $0D39
ENCODING 3385
SWIDTH 1187 0
DWIDTH 19 0
BBX 17 8 1 0
BITMAP
001E00
306100
484100
848080
848080
848080
844100
4FE200
ENDCHAR
STARTCHAR $0D3E
ENCODING 3390
SWIDTH 500 0
DWIDTH 8 0
BBX 6 8 1 1
BITMAP
70
88
04
04
04
04
88
70
ENDCHAR
STARTCHAR $0D3F
ENCODING 3391
SWIDTH 250 0
DWIDTH 4 0
BBX 6 13 -3 -1
BITMAP
70
88
84
04
04
04
04
04
04
04
04
04
04
ENDCHAR
STARTCHAR $0D40
ENCODING 3392
SWIDTH 375 0
DWIDTH 6 0
BBX 6 12 -1 0
BITMAP
F0
A8
A4
E4
04
04
04
04
04
04
04
04
ENDCHAR
STARTCHAR $0D41
ENCODING 3393
SWIDTH 375 0
DWIDTH 6 0
BBX 4 11 1 -2
BITMAP
40
20
20
20
20
20
20
60
90
90
60
ENDCHAR
STARTCHAR $0D42
ENCODING 3394
SWIDTH 375 0
DWIDTH 6 0
BBX 4 12 1 -3
BITMAP
40
20
20
20
20
20
20
20
50
B0
90
60
ENDCHAR
STARTCHAR $0D43
ENCODING 3395
SWIDTH 437 0
DWIDTH 7 0
BBX 5 12 1 -4
BITMAP
20
20
20
20
20
10
10
48
A8
A8
C8
70
ENDCHAR
STARTCHAR $0D46
ENCODING 3398
SWIDTH 625 0
DWIDTH 10 0
BBX 8 8 1 0
BITMAP
3C
42
81
F1
89
89
89
72
ENDCHAR
STARTCHAR $0D47
ENCODING 3399
SWIDTH 562 0
DWIDTH 9 0
BBX 7 9 1 -1
BITMAP
3C
4A
8E
84
80
84
8E
4A
3C
ENDCHAR
STARTCHAR $0D48
ENCODING 3400
SWIDTH 1187 0
DWIDTH 19 0
BBX 17 8 1 0
BITMAP
3C1E00
422100
814080
F17880
894480
894480
894480
723900
ENDCHAR
STARTCHAR $0D4A
ENCODING 3402
SWIDTH 625 0
DWIDTH 10 0
BBX 31 8 1 1
BITMAP
3E000038
41000044
81000002
F1000002
89000002
89000042
89000044
72000038
ENDCHAR
STARTCHAR $0D4B
ENCODING 3403
SWIDTH 562 0
DWIDTH 9 0
BBX 28 8 1 1
BITMAP
3C0001C0
4A000220
8E000010
80000010
80000010
8E000010
4A000220
3C0001C0
ENDCHAR
STARTCHAR $0D4C
ENCODING 3404
SWIDTH 687 0
DWIDTH 11 0
BBX 9 9 1 -1
BITMAP
7600
4900
8880
8880
4880
4880
0100
0200
0C00
ENDCHAR
STARTCHAR $0D4D
ENCODING 3405
SWIDTH 437 0
DWIDTH 7 0
BBX 5 3 1 7
BITMAP
88
88
70
ENDCHAR
STARTCHAR $0D57
ENCODING 3415
SWIDTH 687 0
DWIDTH 11 0
BBX 9 9 1 -1
BITMAP
7600
4900
8880
8880
4880
4880
0100
0200
0C00
ENDCHAR
STARTCHAR $0D66
ENCODING 3430
SWIDTH 937 0
DWIDTH 15 0
BBX 13 8 1 0
BITMAP
3FF8
4000
B000
CC00
8400
8400
4400
3800
ENDCHAR
STARTCHAR $0D67
ENCODING 3431
SWIDTH 937 0
DWIDTH 15 0
BBX 13 11 1 -2
BITMAP
00E0
0110
0208
0208
0208
0208
0208
7FF8
8000
8000
7000
ENDCHAR
STARTCHAR $0D68
ENCODING 3432
SWIDTH 1000 0
DWIDTH 16 0
BBX 14 8 1 1
BITMAP
3C00
4200
8100
8100
8100
8100
8100
43FC
ENDCHAR
STARTCHAR $0D69
ENCODING 3433
SWIDTH 1250 0
DWIDTH 20 0
BBX 18 8 1 0
BITMAP
38E000
451000
820800
820800
820800
820800
421000
421FC0
ENDCHAR
STARTCHAR $0D6A
ENCODING 3434
SWIDTH 750 0
DWIDTH 12 0
BBX 8 11 1 0
BITMAP
02
01
01
3E
43
85
89
89
89
89
46
ENDCHAR
STARTCHAR $0D6B
ENCODING 3435
SWIDTH 875 0
DWIDTH 14 0
BBX 12 12 1 -3
BITMAP
1F00
20C0
4E20
9120
A090
A090
A710
A090
9090
50A0
2080
1F00
ENDCHAR
STARTCHAR $0D6C
ENCODING 3436
SWIDTH 1312 0
DWIDTH 21 0
BBX 19 12 1 -4
BITMAP
38E380
451440
820820
820820
820820
820820
820820
420820
000040
000080
000100
001E00
ENDCHAR
STARTCHAR $0D6D
ENCODING 3437
SWIDTH 875 0
DWIDTH 14 0
BBX 12 8 1 0
BITMAP
1F00
6080
8060
8F20
9110
9090
5910
3F00
ENDCHAR
STARTCHAR $0D6E
ENCODING 3438
SWIDTH 1000 0
DWIDTH 16 0
BBX 14 12 1 -3
BITMAP
3E04
4104
8084
8084
8084
8084
8104
43FC
0004
0004
0008
07F0
ENDCHAR
STARTCHAR $0D6F
ENCODING 3439
SWIDTH 937 0
DWIDTH 15 0
BBX 13 12 1 -1
BITMAP
00E0
0110
0010
38F0
4530
8248
8248
8248
8248
8248
4248
0030
ENDCHAR
STARTCHAR uni0D79
ENCODING 3449
SWIDTH 1125 0
DWIDTH 18 0
BBX 16 8 1 0
BITMAP
38E0
4510
8208
8208
823F
8248
8248
4230
ENDCHAR
STARTCHAR uni0D7A
ENCODING 3450
SWIDTH 1312 0
DWIDTH 21 0
BBX 19 11 1 0
BITMAP
000180
000040
000040
38E3C0
4514C0
820920
E20920
920920
920920
920920
6208C0
ENDCHAR
STARTCHAR uni0D7B
ENCODING 3451
SWIDTH 937 0
DWIDTH 15 0
BBX 13 11 1 0
BITMAP
00E0
0010
0010
38F0
4530
8248
8248
8248
8248
8248
4230
ENDCHAR
STARTCHAR uni0D7C
ENCODING 3452
SWIDTH 625 0
DWIDTH 10 0
BBX 8 11 1 0
BITMAP
06
01
01
3E
43
85
89
89
89
89
46
ENDCHAR
STARTCHAR uni0D7D
ENCODING 3453
SWIDTH 937 0
DWIDTH 15 0
BBX 13 11 1 -1
BITMAP
0060
0010
0010
3FF0
4A30
9148
9148
9148
9148
9148
4E30
ENDCHAR
STARTCHAR uni0D7E
ENCODING 3454
SWIDTH 937 0
DWIDTH 15 0
BBX 13 12 1 0
BITMAP
0030
0008
0008
20F0
4130
8348
8248
8248
8248
8248
4448
3830
ENDCHAR
STARTCHAR uni0D7F
ENCODING 3455
SWIDTH 1000 0
DWIDTH 16 0
BBX 14 10 1 1
BITMAP
0018
0004
0704
0888
0890
7FF8
88A4
88A4
88A4
7718
ENDCHAR
STARTCHAR ECE3
ENCODING 60643
SWIDTH 1500 0
DWIDTH 24 0
BBX 22 8 1 0
BITMAP
30FC04
413F04
822884
824484
824484
823904
440204
38FFFC
ENDCHAR
STARTCHAR ECE4
ENCODING 60644
SWIDTH 2000 0
DWIDTH 32 0
BBX 30 8 1 1
BITMAP
78E3C108
85142104
82082104
F2082104
8A082104
8A082104
8A081288
72080C70
ENDCHAR
STARTCHAR ECE5
ENCODING 60645
SWIDTH 1312 0
DWIDTH 21 0
BBX 19 8 1 0
BITMAP
39CF80
463240
892120
892120
892220
892420
892820
463FE0
ENDCHAR
STARTCHAR ECE6
ENCODING 60646
SWIDTH 1562 0
DWIDTH 25 0
BBX 23 8 1 0
BITMAP
0707F8
089944
089122
7FF222
889222
889222
889122
7709CC
ENDCHAR
STARTCHAR ECE7
ENCODING 60647
SWIDTH 1312 0
DWIDTH 21 0
BBX 19 8 1 0
BITMAP
30E380
411440
820820
820820
820820
820820
440820
380840
ENDCHAR
STARTCHAR ECE8
ENCODING 60648
SWIDTH 1125 0
DWIDTH 18 0
BBX 16 16 1 -8
BITMAP
00C1
0123
312D
4CF1
8421
8421
8421
4FFF
001E
0021
0020
0018
0006
0001
0021
001E
ENDCHAR
STARTCHAR ECE9
ENCODING 60649
SWIDTH 1125 0
DWIDTH 18 0
BBX 16 14 1 -5
BITMAP
001C
0022
3841
4441
8441
8441
8441
4FFF
00E0
0112
01D1
0151
0151
00CE
ENDCHAR
STARTCHAR ECEA
ENCODING 60650
SWIDTH 1250 0
DWIDTH 20 0
BBX 18 15 1 -7
BITMAP
38C100
452080
821080
821080
821080
821080
820880
420D00
000200
0F8F80
105040
105040
105040
105040
088880
ENDCHAR
STARTCHAR ECEB
ENCODING 60651
SWIDTH 1062 0
DWIDTH 17 0
BBX 15 15 1 -7
BITMAP
0002
0002
3C02
4202
4102
0102
0202
FFFE
0078
0084
390C
4514
4514
0494
FF88
ENDCHAR
STARTCHAR ECEC
ENCODING 60652
SWIDTH 1250 0
DWIDTH 20 0
BBX 18 8 1 0
BITMAP
3FCF80
463040
8920C0
892F00
892800
8927C0
892040
462F80
ENDCHAR
STARTCHAR ECED
ENCODING 60653
SWIDTH 1125 0
DWIDTH 18 0
BBX 16 8 1 0
BITMAP
30FC
4112
8209
8209
8211
8211
4421
3CFF
ENDCHAR
STARTCHAR ED15
ENCODING 60693
SWIDTH 1312 0
DWIDTH 21 0
BBX 19 8 1 1
BITMAP
070F80
089040
08A020
7FFC20
88A220
88A220
88A240
771C80
ENDCHAR
STARTCHAR ED16
ENCODING 60694
SWIDTH 937 0
DWIDTH 15 0
BBX 13 13 1 -5
BITMAP
0700
0880
0880
7FF0
8888
8888
8888
7770
1C40
3A20
2A20
2A20
11C0
ENDCHAR
STARTCHAR ED17
ENCODING 60695
SWIDTH 1562 0
DWIDTH 25 0
BBX 23 8 1 1
BITMAP
070106
08829E
0881E2
7FE082
889082
888882
888882
773FFE
ENDCHAR
STARTCHAR ED18
ENCODING 60696
SWIDTH 937 0
DWIDTH 15 0
BBX 13 15 1 -7
BITMAP
30E0
4110
8208
8208
8208
8208
4410
38E0
4110
8208
8208
8208
8208
4410
3860
ENDCHAR
STARTCHAR ED19
ENCODING 60697
SWIDTH 937 0
DWIDTH 15 0
BBX 13 13 1 -5
BITMAP
30E0
4110
8208
8208
8208
8208
4208
2410
1C60
1A20
2510
2510
18E0
ENDCHAR
STARTCHAR ED1A
ENCODING 60698
SWIDTH 937 0
DWIDTH 15 0
BBX 13 8 1 1
BITMAP
7700
8880
8880
7FF0
8888
8888
8888
7730
ENDCHAR
STARTCHAR ED1B
ENCODING 60699
SWIDTH 1312 0
DWIDTH 21 0
BBX 19 9 1 -1
BITMAP
3EE3C0
419420
82C820
E24820
9249C0
8A4820
8A4820
924820
6189C0
ENDCHAR
STARTCHAR ED1C
ENCODING 60700
SWIDTH 1562 0
DWIDTH 25 0
BBX 23 8 1 1
BITMAP
38FE02
453902
824882
F24882
8A4882
8A4882
8A3102
72FFFE
ENDCHAR
STARTCHAR ED1D
ENCODING 60701
SWIDTH 1875 0
DWIDTH 30 0
BBX 28 9 1 -1
BITMAP
38FE3FC0
45394E20
82449110
F2449110
8A449110
8A449110
8A449110
8A449120
70380E00
ENDCHAR
STARTCHAR ED1E
ENCODING 60702
SWIDTH 625 0
DWIDTH 10 0
BBX 8 12 1 -4
BITMAP
7E
81
80
80
7E
01
03
FE
02
01
82
7C
ENDCHAR
STARTCHAR ED1F
ENCODING 60703
SWIDTH 1375 0
DWIDTH 22 0
BBX 20 8 1 -1
BITMAP
38E3E0
451410
820830
F20BC0
8A0A00
8A09F0
8A0810
720BE0
ENDCHAR
STARTCHAR ED20
ENCODING 60704
SWIDTH 1312 0
DWIDTH 21 0
BBX 19 14 1 -6
BITMAP
38E380
451440
820820
F20820
8A0820
8A0820
720820
38E380
451440
820820
F20820
8A0820
8A0820
720840
ENDCHAR
STARTCHAR ED21
ENCODING 60705
SWIDTH 1562 0
DWIDTH 25 0
BBX 23 9 1 0
BITMAP
3FC7F8
452944
889222
889222
889222
889222
889222
8891C2
470004
ENDCHAR
STARTCHAR ED22
ENCODING 60706
SWIDTH 1500 0
DWIDTH 24 0
BBX 22 8 1 0
BITMAP
3FC070
462088
891104
891104
891104
891104
892104
463FFC
ENDCHAR
STARTCHAR ED23
ENCODING 60707
SWIDTH 625 0
DWIDTH 10 0
BBX 8 12 1 -4
BITMAP
3C
42
81
81
9E
83
81
5E
01
01
81
7E
ENDCHAR
STARTCHAR ED24
ENCODING 60708
SWIDTH 1187 0
DWIDTH 19 0
BBX 17 8 1 0
BITMAP
3E2100
412080
812080
9E2080
812080
812080
825100
BF8E00
ENDCHAR
STARTCHAR ED25
ENCODING 60709
SWIDTH 1250 0
DWIDTH 20 0
BBX 18 8 1 0
BITMAP
38FF00
452880
824440
824440
824440
824440
824480
423900
ENDCHAR
STARTCHAR ED26
ENCODING 60710
SWIDTH 1562 0
DWIDTH 25 0
BBX 23 8 1 0
BITMAP
38E038
451044
820882
820882
820882
820882
820882
621FFE
ENDCHAR
STARTCHAR ED27
ENCODING 60711
SWIDTH 1312 0
DWIDTH 21 0
BBX 19 8 1 -1
BITMAP
38E380
451440
820820
820820
820820
820820
820820
420840
ENDCHAR
STARTCHAR ED28
ENCODING 60712
SWIDTH 1062 0
DWIDTH 17 0
BBX 15 8 1 1
BITMAP
38F8
4534
8212
8232
8222
8262
42C2
23FE
ENDCHAR
STARTCHAR ED29
ENCODING 60713
SWIDTH 1062 0
DWIDTH 17 0
BBX 15 14 1 -6
BITMAP
0002
0002
3802
4402
8202
8202
8402
4FFE
0002
0E02
1102
1102
1102
0BFE
ENDCHAR
STARTCHAR ED2A
ENCODING 60714
SWIDTH 1062 0
DWIDTH 17 0
BBX 15 14 1 -6
BITMAP
0002
0002
3002
4802
8402
8402
8402
4FFE
0388
0444
0E42
0942
0944
0638
ENDCHAR
STARTCHAR ED2B
ENCODING 60715
SWIDTH 1250 0
DWIDTH 20 0
BBX 18 12 1 -4
BITMAP
38E040
451040
820840
F20840
8A0840
8A1040
8A1040
723FC0
000C40
003040
004040
01FFC0
ENDCHAR
STARTCHAR ED2C
ENCODING 60716
SWIDTH 1250 0
DWIDTH 20 0
BBX 18 13 1 -5
BITMAP
38E040
451040
820840
F20840
8A0840
8A0840
8A1040
721FC0
03C400
072200
04A200
04A400
031800
ENDCHAR
STARTCHAR ED2D
ENCODING 60717
SWIDTH 1250 0
DWIDTH 20 0
BBX 18 8 1 0
BITMAP
38E040
451040
820840
820840
820840
820840
821040
421FC0
ENDCHAR
STARTCHAR ED2E
ENCODING 60718
SWIDTH 1187 0
DWIDTH 19 0
BBX 17 8 1 0
BITMAP
3E3E00
454500
848480
8C8880
888880
909080
A0A080
FFFF80
ENDCHAR
STARTCHAR ED2F
ENCODING 60719
SWIDTH 437 0
DWIDTH 7 0
BBX 6 12 0 -4
BITMAP
08
10
10
10
08
08
04
04
14
64
84
78
ENDCHAR
STARTCHAR ED30
ENCODING 60720
SWIDTH 937 0
DWIDTH 15 0
BBX 13 12 1 -4
BITMAP
3790
4848
8848
8848
8848
8488
4798
3FE8
0408
0C08
3008
FFF8
ENDCHAR
STARTCHAR ED31
ENCODING 60721
SWIDTH 250 0
DWIDTH 4 0
BBX 5 12 1 -4
BITMAP
80
80
80
80
80
80
80
80
80
80
48
30
ENDCHAR
STARTCHAR ED32
ENCODING 60722
SWIDTH 1312 0
DWIDTH 21 0
BBX 19 12 1 -4
BITMAP
3E1E00
432180
814080
F17880
CB6580
89C4C0
88C440
78B840
0180C0
7E3F00
804000
7FFFE0
ENDCHAR
STARTCHAR ED33
ENCODING 60723
SWIDTH 1000 0
DWIDTH 16 0
BBX 14 12 1 -4
BITMAP
3E04
4104
8084
8084
8084
8084
4104
23FC
00C4
0304
0C04
1FFC
ENDCHAR
STARTCHAR ED34
ENCODING 60724
SWIDTH 937 0
DWIDTH 15 0
BBX 13 14 1 -6
BITMAP
30C0
4130
8218
8228
8248
8248
8248
4458
3C30
0B30
1D10
1310
1290
0CE0
ENDCHAR
STARTCHAR ED35
ENCODING 60725
SWIDTH 125 0
DWIDTH 2 0
BBX 4 8 -3 0
BITMAP
10
10
10
10
10
10
10
F0
ENDCHAR
STARTCHAR ED36
ENCODING 60726
SWIDTH 1187 0
DWIDTH 19 0
BBX 17 13 1 -5
BITMAP
38C100
452080
821080
821080
821080
821080
820880
420F00
01C400
03A200
02A200
02A200
039C00
ENDCHAR
STARTCHAR ED37
ENCODING 60727
SWIDTH 1187 0
DWIDTH 19 0
BBX 17 15 1 -7
BITMAP
38C100
452080
821080
821080
821080
821080
420880
3AC700
452080
821080
821080
821080
821080
820880
420700
ENDCHAR
STARTCHAR ED38
ENCODING 60728
SWIDTH 1187 0
DWIDTH 19 0
BBX 17 14 1 -6
BITMAP
001E00
002100
384100
448080
848080
848080
844100
4FE100
00E000
011200
03D100
025100
025200
018C00
ENDCHAR
STARTCHAR ED39
ENCODING 60729
SWIDTH 1187 0
DWIDTH 19 0
BBX 17 15 1 -8
BITMAP
302100
482080
842080
842080
842080
842080
425100
31AF00
482100
842080
842080
842080
842080
822100
41DE00
ENDCHAR
STARTCHAR ED3A
ENCODING 60730
SWIDTH 937 0
DWIDTH 15 0
BBX 13 14 1 -6
BITMAP
0700
0880
0880
7FF0
8888
8888
8888
7770
0780
0840
0800
0780
0040
0F80
ENDCHAR
STARTCHAR ED3B
ENCODING 60731
SWIDTH 1250 0
DWIDTH 20 0
BBX 18 16 1 -8
BITMAP
38E040
451040
820840
F20840
8A0840
8A0840
8A1040
721FC0
021080
041040
041040
041040
041040
041040
023880
01C700
ENDCHAR
STARTCHAR ED3C
ENCODING 60732
SWIDTH 1250 0
DWIDTH 20 0
BBX 18 17 1 -8
BITMAP
38E040
451040
820840
F20840
8A0840
8A1040
8A1040
721FC0
000F80
001040
002040
002080
002780
002040
002040
002040
001380
ENDCHAR
STARTCHAR ED3D
ENCODING 60733
SWIDTH 1000 0
DWIDTH 16 0
BBX 15 12 0 -4
BITMAP
0002
0002
1E02
2102
4102
0102
0102
FFFE
0062
0182
0602
1FFE
ENDCHAR
STARTCHAR ED3E
ENCODING 60734
SWIDTH 1250 0
DWIDTH 20 0
BBX 18 8 1 0
BITMAP
001F00
002280
384240
444440
844440
844840
845040
4FFFC0
ENDCHAR
STARTCHAR ED3F
ENCODING 60735
SWIDTH 1500 0
DWIDTH 24 0
BBX 22 8 1 0
BITMAP
001C70
002288
384104
444104
844104
844104
842108
4FE110
ENDCHAR
STARTCHAR ED40
ENCODING 60736
SWIDTH 937 0
DWIDTH 15 0
BBX 13 9 1 -1
BITMAP
38F0
4508
8208
8208
82F0
8208
8208
8288
4270
ENDCHAR
STARTCHAR ED41
ENCODING 60737
SWIDTH 1500 0
DWIDTH 24 0
BBX 22 8 1 -1
BITMAP
3FC708
452884
889084
889084
889084
889084
889044
471038
ENDCHAR
STARTCHAR ED42
ENCODING 60738
SWIDTH 1562 0
DWIDTH 25 0
BBX 23 11 1 -2
BITMAP
7BC7BC
E42E62
942942
942942
646F44
00D00C
3F23F0
C04C00
81883C
860854
78078C
ENDCHAR
STARTCHAR ED43
ENCODING 60739
SWIDTH 1812 0
DWIDTH 29 0
BBX 27 8 1 0
BITMAP
38E3CF80
45145140
82082120
F2082120
8A082220
8A082220
8A082C20
72083FE0
ENDCHAR
STARTCHAR ED44
ENCODING 60740
SWIDTH 1750 0
DWIDTH 28 0
BBX 26 8 1 0
BITMAP
38C10700
45208880
82109040
82109040
82109040
82109040
82089040
4207FFC0
ENDCHAR
STARTCHAR ED45
ENCODING 60741
SWIDTH 1562 0
DWIDTH 25 0
BBX 23 9 1 -1
BITMAP
38C084
452082
821082
821082
821082
821082
820882
420944
000638
ENDCHAR
STARTCHAR ED46
ENCODING 60742
SWIDTH 687 0
DWIDTH 11 0
BBX 9 14 1 -6
BITMAP
3E00
4500
8480
8880
8880
9080
A080
FF80
7100
8980
E880
A880
AC80
4700
ENDCHAR
STARTCHAR ED47
ENCODING 60743
SWIDTH 937 0
DWIDTH 15 0
BBX 13 14 1 -6
BITMAP
3C08
4208
8208
8108
FF08
8008
8008
FFF8
1C40
2220
7210
4A10
4A10
31E0
ENDCHAR
STARTCHAR ED48
ENCODING 60744
SWIDTH 937 0
DWIDTH 15 0
BBX 13 15 1 -7
BITMAP
30E0
4110
8238
8228
8248
8248
4448
38F0
4110
8218
8228
8248
8248
4448
3830
ENDCHAR
STARTCHAR ED49
ENCODING 60745
SWIDTH 1312 0
DWIDTH 21 0
BBX 19 16 1 -8
BITMAP
38E380
451440
820820
F20820
8A0820
8A0820
8A0820
8AE840
711800
020800
040400
040400
040400
020800
011000
00E000
ENDCHAR
STARTCHAR ED4A
ENCODING 60746
SWIDTH 1000 0
DWIDTH 16 0
BBX 14 18 1 -7
BITMAP
0060
0090
0010
38F0
4528
8248
8248
8248
8248
8248
4248
0030
00F8
0104
0104
0104
0104
0088
ENDCHAR
STARTCHAR ED4B
ENCODING 60747
SWIDTH 625 0
DWIDTH 10 0
BBX 8 14 1 -6
BITMAP
3C
42
81
81
81
81
81
42
3C
42
42
42
42
24
ENDCHAR
STARTCHAR ED51
ENCODING 60753
SWIDTH 1312 0
DWIDTH 21 0
BBX 19 12 1 -1
BITMAP
000180
000240
000040
38E3C0
4514C0
8208A0
F20920
8A0920
8A0920
8A0920
8A0920
7000C0
ENDCHAR
STARTCHAR ED52
ENCODING 60754
SWIDTH 937 0
DWIDTH 15 0
BBX 13 12 1 -1
BITMAP
0060
0090
0010
38F0
4528
8248
8248
8248
8248
8248
4248
0030
ENDCHAR
STARTCHAR ED53
ENCODING 60755
SWIDTH 625 0
DWIDTH 10 0
BBX 8 11 1 -1
BITMAP
1C
02
02
3C
46
85
89
89
89
89
46
ENDCHAR
STARTCHAR ED54
ENCODING 60756
SWIDTH 1000 0
DWIDTH 16 0
BBX 14 11 1 1
BITMAP
00F0
0008
0008
3FF0
4738
8924
8944
8944
8944
4944
4638
ENDCHAR
STARTCHAR ED55
ENCODING 60757
SWIDTH 937 0
DWIDTH 15 0
BBX 14 11 0 -1
BITMAP
0030
0048
0008
3078
409C
8114
8124
8124
8224
4224
3C18
ENDCHAR
STARTCHAR ED57
ENCODING 60759
SWIDTH 1500 0
DWIDTH 24 0
BBX 7 6 8 -7
BITMAP
7C
82
82
82
82
44
ENDCHAR
STARTCHAR ED58
ENCODING 60760
SWIDTH 625 0
DWIDTH 10 0
BBX 3 5 5 -3
BITMAP
60
80
C0
20
C0
ENDCHAR
STARTCHAR ED59
ENCODING 60761
SWIDTH 687 0
DWIDTH 11 0
BBX 7 7 2 -5
BITMAP
78
84
E8
A6
44
38
FE
ENDCHAR
ENDFONT
